<?xml version="1.0" encoding="UTF-8" standalone="no"?>
<!-- Generator: Adobe Illustrator 18.1.0, SVG Export Plug-In . SVG Version: 6.00 Build 0)  -->

<svg
   xmlns:dc="http://purl.org/dc/elements/1.1/"
   xmlns:cc="http://creativecommons.org/ns#"
   xmlns:rdf="http://www.w3.org/1999/02/22-rdf-syntax-ns#"
   xmlns:svg="http://www.w3.org/2000/svg"
   xmlns="http://www.w3.org/2000/svg"
   xmlns:sodipodi="http://sodipodi.sourceforge.net/DTD/sodipodi-0.dtd"
   xmlns:inkscape="http://www.inkscape.org/namespaces/inkscape"
   version="1.1"
   id="Laag_1"
   x="0px"
   y="0px"
   viewBox="0 0 127.24603 111.8"
   enable-background="new 0 0 856 412"
   xml:space="preserve"
   inkscape:version="0.48.5 r10040"
   width="100%"
   height="100%"
   sodipodi:docname="icons_def.svg"><metadata
     id="metadata129"><rdf:RDF><cc:Work
         rdf:about=""><dc:format>image/svg+xml</dc:format><dc:type
           rdf:resource="http://purl.org/dc/dcmitype/StillImage" /><dc:title></dc:title></cc:Work></rdf:RDF></metadata><defs
     id="defs127" /><sodipodi:namedview
     pagecolor="#ffffff"
     bordercolor="#666666"
     borderopacity="1"
     objecttolerance="10"
     gridtolerance="10"
     guidetolerance="10"
     inkscape:pageopacity="0"
     inkscape:pageshadow="2"
     inkscape:window-width="811"
     inkscape:window-height="654"
     id="namedview125"
     showgrid="false"
     inkscape:zoom="0.55023364"
     inkscape:cx="329.34603"
     inkscape:cy="-281.4"
     inkscape:window-x="421"
     inkscape:window-y="38"
     inkscape:window-maximized="0"
     inkscape:current-layer="Laag_1"
     fit-margin-top="0"
     fit-margin-left="0"
     fit-margin-right="0"
     fit-margin-bottom="0" /><g
     id="g3"
     transform="translate(-49.326985,-56.5)"><path
       d="m 171.2,345.5 c -6.6,0 -11.9,-5.4 -11.9,-11.9 v -27.4 h -27.4 c -6.6,0 -11.9,-5.4 -11.9,-11.9 v -4.2 c 0,-6.6 5.4,-11.9 11.9,-11.9 h 27.4 v -27.4 c 0,-6.6 5.4,-11.9 11.9,-11.9 h 4.2 c 6.6,0 11.9,5.4 11.9,11.9 v 27.4 h 27.4 c 6.6,0 11.9,5.4 11.9,11.9 v 4.2 c 0,6.6 -5.4,11.9 -11.9,11.9 h -27.4 v 27.4 c 0,6.6 -5.4,11.9 -11.9,11.9 h -4.2 z"
       id="path5"
       inkscape:connector-curvature="0"
       style="fill:#ffffff" /><path
       d="m 175.3,241.4 c 5.2,0 9.4,4.2 9.4,9.4 v 29.9 h 29.9 c 5.2,0 9.4,4.2 9.4,9.4 v 4.2 c 0,5.2 -4.2,9.4 -9.4,9.4 h -29.9 v 29.9 c 0,5.2 -4.2,9.4 -9.4,9.4 h -4.2 c -5.2,0 -9.4,-4.2 -9.4,-9.4 v -29.9 h -29.9 c -5.2,0 -9.4,-4.2 -9.4,-9.4 v -4.2 c 0,-5.2 4.2,-9.4 9.4,-9.4 h 29.9 v -29.9 c 0,-5.2 4.2,-9.4 9.4,-9.4 h 4.2 m 0,-5 h -4.2 c -8,0 -14.4,6.5 -14.4,14.4 v 24.9 h -24.9 c -8,0 -14.4,6.5 -14.4,14.4 v 4.2 c 0,8 6.5,14.4 14.4,14.4 h 24.9 v 24.9 c 0,8 6.5,14.4 14.4,14.4 h 4.2 c 8,0 14.4,-6.5 14.4,-14.4 v -24.9 h 24.9 c 8,0 14.4,-6.5 14.4,-14.4 v -4.2 c 0,-8 -6.5,-14.4 -14.4,-14.4 h -24.9 v -24.9 c 0,-7.9 -6.4,-14.4 -14.4,-14.4 l 0,0 z"
       id="path7"
       inkscape:connector-curvature="0" /></g><g
     id="g9"
     transform="translate(-49.326985,-56.5)"><g
       id="g11"><path
         d="m 81.3,165.8 c -1.4,0 -2.5,-1.1 -2.5,-2.5 v -62.6 l -7,5.9 c -0.1,0.1 -0.2,0.1 -0.2,0.2 -1,0.6 -2.1,1 -3.2,1 -2,0 -3.8,-1 -4.9,-2.6 L 52.8,89.1 C 51,86.4 51.8,82.8 54.5,81 L 84.2,60.3 c 0.2,-0.1 0.4,-0.3 0.7,-0.3 0.1,0 2.8,-0.9 6.6,-1 l 3.1,0 c 0.7,0 1.4,0.3 1.8,0.8 0.5,0.5 0.7,1.2 0.6,1.9 0,0.1 0,0.3 -0.1,0.4 0.2,7.5 8.1,14.5 16.5,14.5 8.4,0 16.3,-7 16.5,-14.5 0,-0.1 0,-0.3 -0.1,-0.4 -0.1,-0.7 0.2,-1.4 0.6,-1.9 0.4,-0.5 1.1,-0.8 1.8,-0.8 h 6.1 c 2.4,0 4.3,1.1 4.5,1.2 0.1,0 0.1,0.1 0.2,0.1 L 171.7,81 c 2.6,1.7 3.4,5.4 1.6,8.1 l -10.7,15.2 c -1,1.6 -2.9,2.6 -4.9,2.6 h 0 c -1.2,0 -2.3,-0.3 -3.2,-1 -0.1,0 -0.1,-0.1 -0.2,-0.2 l -6.4,-5.3 -0.2,62.9 c 0,1.4 -1.1,2.5 -2.5,2.5 H 81.3 z"
         id="path13"
         inkscape:connector-curvature="0"
         style="fill:#ffffff" /><path
         d="m 138.4,61.5 c 1.8,0 3.1,0.9 3.1,0.9 L 170.2,83 c 1.6,1 2,3.1 0.9,4.7 l -10.7,15.1 c -0.6,1 -1.7,1.5 -2.8,1.5 -0.6,0 -1.3,-0.2 -1.9,-0.6 L 145.2,95.1 145,163.3 H 81.3 v -68 l -11.2,9.4 c -0.6,0.4 -1.2,0.6 -1.9,0.6 -1.1,0 -2.2,-0.5 -2.8,-1.5 L 54.8,87.7 c -1,-1.6 -0.6,-3.6 0.9,-4.7 L 85.4,62.3 c 0,0 2.4,-0.8 5.8,-0.9 h 3.1 c 0,0.1 0,0.2 0,0.2 0,0 0,0 0,0 0,0 0,0 0,0.2 0,9 9.1,17.3 19,17.3 9.9,0 19,-8.3 19,-17.3 0,-0.2 0,-0.2 0,-0.2 0,0 0,0 0,0 0,0 0,0 0,-0.2 h 5.9 0.2 c -0.1,0.1 0,0.1 0,0.1 m 0,-5 c 0,0 -0.1,0 0,0 h -0.2 -5.9 c -1.4,0 -2.7,0.6 -3.7,1.6 -0.9,1 -1.4,2.4 -1.3,3.8 0,0.1 0,0.2 0,0.4 -0.3,6.1 -7.1,11.9 -14,11.9 -6.9,0 -13.7,-5.8 -14,-11.9 0,-0.1 0,-0.2 0,-0.4 0.1,-1.4 -0.3,-2.8 -1.3,-3.8 -0.9,-1 -2.3,-1.6 -3.7,-1.6 h -3.1 c 0,0 -0.1,0 -0.1,0 -4,0.1 -6.9,1 -7.3,1.1 -0.5,0.2 -0.9,0.4 -1.3,0.7 L 53,78.9 c -3.8,2.6 -4.8,7.7 -2.3,11.6 l 10.7,16.1 c 1.6,2.3 4.2,3.7 7,3.7 1.6,0 3.2,-0.5 4.6,-1.4 0.2,-0.1 0.3,-0.2 0.5,-0.3 l 2.9,-2.5 v 57.2 c 0,2.8 2.2,5 5,5 h 63.8 c 2.8,0 5,-2.2 5,-5 l 0.1,-57.7 2.3,1.9 c 0.1,0.1 0.3,0.2 0.4,0.3 1.4,0.9 3,1.4 4.6,1.4 2.8,0 5.4,-1.4 6.9,-3.7 l 10.6,-15 c 0,0 0.1,-0.1 0.1,-0.1 2.5,-3.8 1.5,-9 -2.3,-11.5 L 144.3,58.2 c -0.1,-0.1 -0.2,-0.1 -0.3,-0.2 -0.3,-0.2 -2.6,-1.5 -5.6,-1.5 l 0,0 z"
         id="path15"
         inkscape:connector-curvature="0" /></g></g><g
     id="g17"
     transform="translate(-49.326985,-56.5)"><g
       id="g19"><path
         d="M 342.8,129.2 C 339.7,48.2 328.4,63 328.4,63 v 64.2 2.1 29.9 c 0,2.1 1.7,3.8 3.8,3.8 2.1,0 3.8,-1.7 3.8,-3.8 v -29.9 h 6.8 z"
         id="path21"
         inkscape:connector-curvature="0"
         style="fill:#ffffff" /><path
         d="m 330.4,61.9 c 3.4,0 10.1,7.9 12.4,67.3 H 336 v 29.9 c 0,2.1 -1.7,3.8 -3.8,3.8 -2.1,0 -3.8,-1.7 -3.8,-3.8 v -29.9 -2.1 -64.2 c 0,0 0.8,-1 2,-1 m 0,-5.5 c -2.9,0 -5.1,1.6 -6.3,3.2 -0.7,0.9 -1.1,2.1 -1.1,3.3 v 64.2 2.1 29.9 c 0,5.1 4.1,9.3 9.2,9.3 5.1,0 9.2,-4.2 9.2,-9.3 v -24.5 h 1.4 c 1.5,0 2.9,-0.6 3.9,-1.7 1,-1.1 1.6,-2.5 1.5,-4 -1,-26.3 -3,-45.5 -5.9,-57 -1.1,-4.2 -4,-15.5 -11.9,-15.5 l 0,0 z"
         id="path23"
         inkscape:connector-curvature="0" /></g><g
       id="g25"><g
         id="g27"><path
           d="m 294.6,62.3 c -6,0 -10.8,1.2 -10.9,7.2 l -0.1,14 c 0,4.8 3.1,8.9 7.5,10.4 -0.4,0.6 -0.6,1.3 -0.6,2.1 l -0.3,63 c 0,2.2 1.7,3.9 3.9,3.9 2.2,0 3.9,-1.7 3.9,-3.9 l 0.3,-63 c 0,-0.8 -0.2,-1.5 -0.6,-2.1 4.4,-1.4 7.6,-5.4 7.6,-10.3 l 0.1,-14 c 0,-6 -4.8,-7.3 -10.8,-7.3 z"
           id="path29"
           inkscape:connector-curvature="0"
           style="fill:#ffffff" /><path
           d="m 294.4,62.3 c 0.1,0 0.2,0 0.2,0 6,0 10.8,1.3 10.8,7.3 l -0.1,14 c 0,4.8 -3.2,8.9 -7.6,10.3 0.4,0.6 0.6,1.3 0.6,2.1 l -0.3,63 c 0,2.2 -1.8,3.9 -3.9,3.9 0,0 0,0 0,0 -2.2,0 -3.9,-1.8 -3.9,-3.9 l 0.3,-63 c 0,-0.8 0.2,-1.5 0.6,-2.1 -4.4,-1.4 -7.5,-5.5 -7.5,-10.4 l 0.1,-14 c 0.1,-6 4.8,-7.2 10.7,-7.2 m 0,-5.5 c -4.4,0 -7.6,0.7 -10.2,2 -3.8,2.1 -6,5.9 -6,10.6 l -0.1,14 c 0,5.4 2.6,10.4 6.8,13.4 l -0.3,62.1 c 0,2.5 1,4.9 2.7,6.7 1.8,1.8 4.1,2.8 6.7,2.8 5.2,0 9.5,-4.2 9.5,-9.4 l 0.3,-62.1 c 4.3,-3 7,-7.9 7,-13.3 l 0.1,-14 c 0,-4.8 -2.1,-8.6 -6,-10.8 -2.6,-1.4 -5.8,-2.1 -10.3,-2.1 l -0.2,0.1 0,0 z"
           id="path31"
           inkscape:connector-curvature="0" /></g><g
         id="g33"><rect
           x="289"
           y="62.200001"
           transform="matrix(1,0.00578751,-0.00578751,1,0.4236,-1.6795)"
           width="2.9000001"
           height="20.4"
           id="rect35" /><path
           d="m 291.8,83.2 0,0 -2.9,0 c -0.4,0 -0.7,-0.3 -0.7,-0.7 l 0.1,-20.4 c 0,-0.2 0.1,-0.4 0.2,-0.5 0.1,-0.1 0.4,-0.3 0.5,-0.2 l 2.9,0 c 0.4,0 0.7,0.3 0.7,0.7 l -0.1,20.4 c 0,0.2 -0.1,0.4 -0.2,0.5 -0.2,0.2 -0.3,0.2 -0.5,0.2 z m -2.2,-1.3 1.5,0 0.1,-19 -1.5,0 -0.1,19 z"
           id="path37"
           inkscape:connector-curvature="0" /></g><g
         id="g39"><rect
           x="297.5"
           y="62.200001"
           transform="matrix(1,0.00578751,-0.00578751,1,0.4241,-1.729)"
           width="2.9000001"
           height="20.4"
           id="rect41" /><path
           d="m 300.3,83.3 0,0 -2.9,0 c -0.4,0 -0.7,-0.3 -0.7,-0.7 l 0.1,-20.4 c 0,-0.2 0.1,-0.4 0.2,-0.5 0.1,-0.1 0.3,-0.2 0.5,-0.2 0,0 0,0 0,0 l 2.9,0 c 0.4,0 0.7,0.3 0.7,0.7 L 301,82.6 c 0,0.2 -0.1,0.4 -0.2,0.5 -0.1,0.1 -0.3,0.2 -0.5,0.2 z m -2.1,-1.4 1.5,0 0.1,-19 -1.5,0 -0.1,19 z"
           id="path43"
           inkscape:connector-curvature="0" /></g></g></g><g
     id="g45"
     transform="translate(-49.326985,-56.5)"><g
       id="g47"><path
         d="m 491.2,318.4 c -0.4,0 -0.8,-0.1 -1.1,-0.3 l -19.3,-9.6 c -8.9,6.4 -20.3,9.9 -32.2,9.9 -27,0 -48.9,-17.9 -48.9,-39.9 0,-22 21.9,-39.9 48.9,-39.9 27,0 48.9,17.9 48.9,39.9 0,5.4 -1.3,10.7 -4,15.7 l 9.9,20.6 c 0.5,1 0.3,2.1 -0.5,2.9 -0.5,0.4 -1.1,0.7 -1.7,0.7 z"
         id="path49"
         inkscape:connector-curvature="0"
         style="fill:#ffffff" /><path
         d="m 438.6,241.2 c 25.6,0 46.4,16.7 46.4,37.4 0,5.6 -1.6,10.8 -4.3,15.6 l 10.5,21.8 -20.7,-10.3 c -8.3,6.4 -19.6,10.3 -32,10.3 -25.6,0 -46.4,-16.7 -46.4,-37.4 0.1,-20.7 20.8,-37.4 46.5,-37.4 m 0,-5 c -28.3,0 -51.4,19 -51.4,42.4 0,23.4 23.1,42.4 51.4,42.4 11.9,0 23.3,-3.4 32.4,-9.5 l 18,9 c 0.7,0.4 1.5,0.5 2.2,0.5 1.3,0 2.6,-0.5 3.5,-1.4 1.5,-1.5 1.9,-3.8 1,-5.7 l -9.4,-19.5 c 2.4,-5 3.7,-10.3 3.7,-15.7 -0.1,-23.5 -23.1,-42.5 -51.4,-42.5 l 0,0 z"
         id="path51"
         inkscape:connector-curvature="0" /></g><g
       id="g53"><path
         d="m 334,344.9 c -0.6,0 -1.3,-0.2 -1.8,-0.7 -0.8,-0.8 -1,-1.9 -0.5,-2.9 l 9.9,-20.6 c -2.6,-5 -4,-10.3 -4,-15.7 0,-22 21.9,-39.9 48.9,-39.9 27,0 48.9,17.9 48.9,39.9 0,22 -21.9,39.9 -48.9,39.9 -11.9,0 -23.3,-3.5 -32.2,-9.9 l -19.3,9.6 c -0.3,0.2 -0.6,0.3 -1,0.3 z"
         id="path55"
         inkscape:connector-curvature="0"
         style="fill:#ffffff" /><path
         d="m 386.6,267.7 c 25.6,0 46.4,16.7 46.4,37.4 0,20.6 -20.8,37.4 -46.4,37.4 -12.4,0 -23.6,-3.9 -32,-10.3 l -20.6,10.2 10.5,-21.8 c -2.7,-4.7 -4.3,-10 -4.3,-15.6 0,-20.6 20.8,-37.3 46.4,-37.3 m 0,-5 c -28.3,0 -51.4,19 -51.4,42.4 0,5.4 1.2,10.7 3.7,15.7 l -9.4,19.5 c -0.9,1.9 -0.5,4.2 1,5.7 1,0.9 2.2,1.4 3.5,1.4 0.8,0 1.5,-0.2 2.2,-0.5 l 18,-9 c 9.2,6.1 20.5,9.5 32.4,9.5 28.3,0 51.4,-19 51.4,-42.4 0,-23.3 -23.1,-42.3 -51.4,-42.3 l 0,0 z"
         id="path57"
         inkscape:connector-curvature="0" /></g></g><g
     id="g59"
     transform="translate(-49.326985,-56.5)"><g
       id="g61"><g
         id="g63"><path
           d="m 524,162.3 c -0.2,0 -0.4,0 -0.6,-0.1 l -37.6,-9.6 c -1.1,-0.3 -1.9,-1.3 -1.9,-2.4 V 55.3 c 0,-0.8 0.4,-1.5 1,-2 0.4,-0.3 1,-0.5 1.5,-0.5 0.2,0 0.4,0 0.6,0.1 l 37.6,9.6 c 1.1,0.3 1.9,1.3 1.9,2.4 v 94.9 c 0,0.8 -0.4,1.5 -1,2 -0.4,0.3 -1,0.5 -1.5,0.5 z"
           id="path65"
           inkscape:connector-curvature="0"
           style="fill:#ffffff" /><path
           d="m 486.4,55.3 37.6,9.6 v 94.9 l -37.6,-9.6 V 55.3 m 0,-5 c -1.1,0 -2.2,0.4 -3.1,1.1 -1.2,0.9 -1.9,2.4 -1.9,3.9 v 94.9 c 0,2.3 1.6,4.3 3.8,4.8 l 37.6,9.6 c 0.4,0.1 0.8,0.2 1.2,0.2 1.1,0 2.2,-0.4 3.1,-1.1 1.2,-0.9 1.9,-2.4 1.9,-3.9 V 64.9 c 0,-2.3 -1.6,-4.3 -3.8,-4.8 l -37.6,-9.6 c -0.4,-0.1 -0.8,-0.2 -1.2,-0.2 l 0,0 z"
           id="path67"
           inkscape:connector-curvature="0" /></g><g
         id="g69"><path
           d="m 524,162.3 c -0.5,0 -1.1,-0.2 -1.5,-0.5 -0.6,-0.5 -1,-1.2 -1,-2 V 64.9 c 0,-1.1 0.8,-2.1 1.9,-2.4 L 561,52.9 c 0.2,-0.1 0.4,-0.1 0.6,-0.1 0.5,0 1.1,0.2 1.5,0.5 0.6,0.5 1,1.2 1,2 v 94.9 c 0,1.1 -0.8,2.1 -1.9,2.4 l -37.6,9.6 c -0.2,0.1 -0.4,0.1 -0.6,0.1 z"
           id="path71"
           inkscape:connector-curvature="0"
           style="fill:#ffffff" /><path
           d="m 561.6,55.3 v 94.9 L 524,159.8 V 64.9 l 37.6,-9.6 m 0,-5 c -0.4,0 -0.8,0.1 -1.2,0.2 l -37.6,9.6 c -2.2,0.6 -3.8,2.6 -3.8,4.8 v 94.9 c 0,1.5 0.7,3 1.9,3.9 0.9,0.7 2,1.1 3.1,1.1 0.4,0 0.8,-0.1 1.2,-0.2 l 37.6,-9.6 c 2.2,-0.6 3.8,-2.6 3.8,-4.8 V 55.3 c 0,-1.5 -0.7,-3 -1.9,-3.9 -1,-0.7 -2,-1.1 -3.1,-1.1 l 0,0 z"
           id="path73"
           inkscape:connector-curvature="0" /></g><g
         id="g75"><path
           d="m 600.3,162.3 c -0.2,0 -0.4,0 -0.6,-0.1 l -37.6,-9.6 c -1.1,-0.3 -1.9,-1.3 -1.9,-2.4 V 55.3 c 0,-0.8 0.4,-1.5 1,-2 0.4,-0.3 1,-0.5 1.5,-0.5 0.2,0 0.4,0 0.6,0.1 l 37.6,9.6 c 1.1,0.3 1.9,1.3 1.9,2.4 v 94.9 c 0,0.8 -0.4,1.5 -1,2 -0.4,0.3 -0.9,0.5 -1.5,0.5 z"
           id="path77"
           inkscape:connector-curvature="0"
           style="fill:#ffffff" /><path
           d="m 562.8,55.3 37.6,9.6 v 94.9 l -37.6,-9.6 V 55.3 m 0,-5 c -1.1,0 -2.2,0.4 -3.1,1.1 -1.2,0.9 -1.9,2.4 -1.9,3.9 v 94.9 c 0,2.3 1.6,4.3 3.8,4.8 l 37.6,9.6 c 0.4,0.1 0.8,0.2 1.2,0.2 1.1,0 2.2,-0.4 3.1,-1.1 1.2,-0.9 1.9,-2.4 1.9,-3.9 V 64.9 c 0,-2.3 -1.6,-4.3 -3.8,-4.8 L 564,50.5 c -0.4,-0.1 -0.8,-0.2 -1.2,-0.2 l 0,0 z"
           id="path79"
           inkscape:connector-curvature="0" /></g></g><path
       stroke-miterlimit="10"
       d="m 484.8,118.5 c 3.9,13.4 26.9,6 34,0.9 14.6,-10.2 20.6,-32.2 40.6,-34.6 20.6,-2.4 24.5,25.7 42.1,26.3"
       id="path81"
       inkscape:connector-curvature="0"
       style="fill:none;stroke:#000000;stroke-width:3;stroke-linecap:round;stroke-linejoin:bevel;stroke-miterlimit:10;stroke-dasharray:8, 10, 8, 10, 8, 10" /></g><g
     id="g83"
     transform="translate(-49.326985,-56.5)"><path
       d="m 755.3,169.4 c -5.1,0 -9.3,-4.2 -9.3,-9.3 V 153 c 0,-5.1 4.2,-9.3 9.3,-9.3 h 8 c 5.1,0 9.3,4.2 9.3,9.3 v 7.1 c 0,5.1 -4.2,9.3 -9.3,9.3 h -8 z m -6.7,-38.5 c -1.4,0 -2.5,-1.1 -2.5,-2.5 v -6.3 c 0,-3.2 0.4,-5.9 1.3,-8.2 0.9,-2.3 2.4,-4.5 4.5,-6.5 2.6,-2.5 5.1,-4.8 7.5,-6.8 2.2,-1.8 4.1,-3.6 5.6,-5.2 1.5,-1.5 2.6,-3 3.4,-4.3 0.7,-1.1 1,-2.2 1,-3.3 0,-2.4 -0.7,-4.2 -2.1,-5.5 -1.5,-1.3 -3.3,-2 -5.7,-2 -3.8,0 -6.5,1 -8.4,2.9 -1.9,2.1 -3,4.5 -3.3,7.5 -0.1,1.3 -1.2,2.3 -2.5,2.3 -0.1,0 -0.1,0 -0.2,0 l -22,-1.4 c -0.7,0 -1.3,-0.4 -1.7,-0.9 -0.4,-0.5 -0.6,-1.2 -0.6,-1.9 1.1,-10.7 5.2,-19 12,-24.7 6.8,-5.6 15.6,-8.5 26.2,-8.5 4.6,0 9,0.6 13.1,1.9 4.1,1.3 7.9,3.2 11,5.8 3.2,2.6 5.8,5.9 7.7,9.7 1.9,3.9 2.8,8.3 2.8,13.2 0,3 -0.3,5.7 -0.9,8.1 -0.6,2.5 -1.7,5 -3.2,7.4 -1.5,2.3 -3.4,4.7 -5.8,7.1 -2.3,2.3 -5.2,4.9 -8.7,7.6 -1.9,1.5 -3.1,2.8 -3.7,4.1 -0.6,1.3 -0.9,2.5 -0.9,3.8 v 4.1 c 0,1.4 -1.1,2.5 -2.5,2.5 h -21.4 z"
       id="path85"
       inkscape:connector-curvature="0"
       style="fill:#ffffff" /><path
       d="m 761.1,58.2 c 4.4,0 8.5,0.6 12.4,1.8 3.9,1.2 7.3,3 10.2,5.4 3,2.4 5.3,5.3 7,8.9 1.7,3.5 2.6,7.6 2.6,12.1 0,2.8 -0.3,5.3 -0.9,7.5 -0.6,2.2 -1.5,4.5 -2.9,6.6 -1.4,2.2 -3.2,4.4 -5.4,6.6 -2.2,2.2 -5.1,4.7 -8.5,7.4 -2.2,1.7 -3.7,3.4 -4.4,5 -0.8,1.6 -1.1,3.2 -1.1,4.9 v 4.1 h -21.4 v -6.3 c 0,-2.9 0.4,-5.3 1.1,-7.3 0.8,-2 2,-3.9 3.9,-5.6 2.7,-2.6 5.1,-4.8 7.4,-6.7 2.2,-1.9 4.2,-3.7 5.8,-5.4 1.6,-1.7 2.9,-3.2 3.8,-4.7 0.9,-1.5 1.4,-3 1.4,-4.6 0,-3.1 -1,-5.6 -2.9,-7.4 -2,-1.8 -4.4,-2.6 -7.4,-2.6 -4.5,0 -7.9,1.2 -10.2,3.7 -2.3,2.5 -3.6,5.5 -3.9,9 l -22,-1.4 c 1,-10.1 4.8,-17.8 11.1,-23.1 6.1,-5.3 14.3,-7.9 24.3,-7.9 m 2.2,88.1 c 3.7,0 6.8,3 6.8,6.8 v 7.1 c 0,3.7 -3,6.8 -6.8,6.8 h -8 c -3.7,0 -6.8,-3 -6.8,-6.8 v -7.1 c 0,-3.7 3,-6.8 6.8,-6.8 h 8 m -2.2,-93.1 c -11.1,0 -20.5,3.1 -27.8,9.1 -7.4,6.1 -11.7,15 -12.9,26.4 -0.1,1.4 0.3,2.7 1.2,3.7 0.9,1 2.1,1.7 3.5,1.8 l 22,1.4 c 0.1,0 0.2,0 0.3,0 2.6,0 4.8,-2 5,-4.6 0.2,-2.4 1,-4.3 2.6,-6 1.4,-1.4 3.5,-2.1 6.6,-2.1 2.2,0 3.4,0.8 4,1.4 0.5,0.5 1.3,1.4 1.3,3.6 0,0.7 -0.2,1.3 -0.6,2 -0.7,1.2 -1.8,2.5 -3.1,3.8 -1.5,1.6 -3.3,3.2 -5.4,5 -2.4,2 -4.9,4.3 -7.6,6.9 -2.3,2.2 -4,4.7 -5.1,7.4 -1,2.6 -1.5,5.6 -1.5,9.1 v 6.3 c 0,2.8 2.2,5 5,5 H 770 c 2.8,0 5,-2.2 5,-5 v -4.1 c 0,-0.9 0.2,-1.8 0.7,-2.7 0.2,-0.5 0.9,-1.6 3,-3.2 3.6,-2.8 6.6,-5.4 9,-7.8 2.5,-2.5 4.6,-5 6.1,-7.5 1.7,-2.6 2.8,-5.3 3.5,-8.1 0.7,-2.6 1,-5.6 1,-8.7 0,-5.3 -1,-10.1 -3.1,-14.3 -2,-4.2 -4.8,-7.7 -8.4,-10.6 -3.4,-2.8 -7.4,-4.9 -11.9,-6.2 -4.3,-1.4 -8.9,-2 -13.8,-2 l 0,0 z m 2.2,88.1 h -8 c -6.5,0 -11.8,5.3 -11.8,11.8 v 7.1 c 0,6.5 5.3,11.8 11.8,11.8 h 8 c 6.5,0 11.8,-5.3 11.8,-11.8 v -7.1 c 0,-6.5 -5.3,-11.8 -11.8,-11.8 l 0,0 z"
       id="path87"
       inkscape:connector-curvature="0" /></g><g
     id="g89"
     transform="translate(-49.326985,-56.5)"><g
       id="g91"><path
         d="m 638.8,269.1 c -0.9,0 -1.8,-0.5 -2.2,-1.3 l -14.3,-26.4 c -0.4,-0.8 -0.4,-1.7 0.1,-2.5 0.5,-0.8 1.3,-1.2 2.1,-1.2 h 76.2 c 0.9,0 1.8,0.5 2.2,1.3 l 14.3,26.4 c 0.4,0.8 0.4,1.7 -0.1,2.5 -0.5,0.8 -1.3,1.2 -2.1,1.2 h -76.2 z"
         id="path93"
         inkscape:connector-curvature="0"
         style="fill:#ffffff" /><path
         d="m 700.7,240.3 14.3,26.4 h -76.2 l -14.3,-26.4 h 76.2 m 0,-5 h -76.2 c -1.8,0 -3.4,0.9 -4.3,2.4 -0.9,1.5 -0.9,3.4 -0.1,4.9 l 14.3,26.4 c 0.9,1.6 2.6,2.6 4.4,2.6 H 715 c 1.8,0 3.4,-0.9 4.3,-2.4 0.9,-1.5 0.9,-3.4 0.1,-4.9 l -14.3,-26.4 c -0.8,-1.6 -2.5,-2.6 -4.4,-2.6 l 0,0 z"
         id="path95"
         inkscape:connector-curvature="0" /></g><g
       id="g97"><path
         d="m 620.7,350.8 c -1.4,0 -2.5,-1.1 -2.5,-2.5 V 240 c 0,-1.4 1.1,-2.5 2.5,-2.5 h 78.2 c 1.4,0 2.5,1.1 2.5,2.5 v 108.3 c 0,1.4 -1.1,2.5 -2.5,2.5 h -78.2 z"
         id="path99"
         inkscape:connector-curvature="0"
         style="fill:#ffffff" /><path
         d="M 698.9,240 V 348.3 H 620.7 V 240 h 78.2 m 0,-5 h -78.2 c -2.8,0 -5,2.2 -5,5 v 108.3 c 0,2.8 2.2,5 5,5 h 78.2 c 2.8,0 5,-2.2 5,-5 V 240 c 0,-2.8 -2.2,-5 -5,-5 l 0,0 z"
         id="path101"
         inkscape:connector-curvature="0" /></g><g
       id="g103"><path
         d="m 620.1,350.8 c -0.8,0 -1.6,-0.4 -2.1,-1.1 L 603.7,328 c -0.5,-0.8 -0.5,-1.8 -0.1,-2.6 0.4,-0.8 1.3,-1.3 2.2,-1.3 H 682 c 0.8,0 1.6,0.4 2.1,1.1 l 14.3,21.7 c 0.5,0.8 0.5,1.8 0.1,2.6 -0.4,0.8 -1.3,1.3 -2.2,1.3 h -76.2 z"
         id="path105"
         inkscape:connector-curvature="0"
         style="fill:#ffffff" /><path
         d="m 682.1,326.5 14.3,21.7 h -76.2 l -14.3,-21.7 h 76.2 m 0,-5 h -76.2 c -1.8,0 -3.5,1 -4.4,2.6 -0.9,1.6 -0.8,3.6 0.2,5.1 L 616,351 c 0.9,1.4 2.5,2.3 4.2,2.3 h 76.2 c 1.8,0 3.5,-1 4.4,-2.6 0.9,-1.6 0.8,-3.6 -0.2,-5.1 l -14.3,-21.7 c -0.9,-1.5 -2.5,-2.4 -4.2,-2.4 l 0,0 z"
         id="path107"
         inkscape:connector-curvature="0" /></g><line
       stroke-miterlimit="10"
       x1="641.70001"
       y1="259.5"
       x2="684.09998"
       y2="259.5"
       id="line109"
       style="fill:#ffffff;stroke:#000000;stroke-width:5;stroke-linecap:round;stroke-linejoin:round;stroke-miterlimit:10" /><line
       stroke-miterlimit="10"
       x1="641.70001"
       y1="273.79999"
       x2="684.09998"
       y2="273.79999"
       id="line111"
       style="fill:#ffffff;stroke:#000000;stroke-width:5;stroke-linecap:round;stroke-linejoin:round;stroke-miterlimit:10" /><line
       stroke-miterlimit="10"
       x1="655.40002"
       y1="288.20001"
       x2="684.09998"
       y2="288.20001"
       id="line113"
       style="fill:#ffffff;stroke:#000000;stroke-width:5;stroke-linecap:round;stroke-linejoin:round;stroke-miterlimit:10" /><line
       stroke-miterlimit="10"
       x1="641.70001"
       y1="303.39999"
       x2="684.09998"
       y2="303.39999"
       id="line115"
       style="fill:#ffffff;stroke:#000000;stroke-width:5;stroke-linecap:round;stroke-linejoin:round;stroke-miterlimit:10" /><g
       id="g117"><path
         d="m 623.1,278.4 c -1.6,0 -3.2,-0.6 -4.3,-1.8 l -25.2,-25.2 c -2.4,-2.4 -2.4,-6.2 0,-8.6 1.2,-1.2 2.7,-1.8 4.3,-1.8 1.6,0 3.2,0.6 4.3,1.8 l 25.2,25.2 c 2.4,2.4 2.4,6.2 0,8.6 -1.2,1.1 -2.7,1.8 -4.3,1.8 z"
         id="path119"
         inkscape:connector-curvature="0"
         style="fill:#ffffff" /><path
         d="m 597.9,243.5 c 0.9,0 1.8,0.4 2.5,1.1 l 25.2,25.2 c 1.4,1.4 1.4,3.7 0,5.1 -0.7,0.7 -1.6,1.1 -2.5,1.1 -0.9,0 -1.8,-0.4 -2.5,-1.1 l -25.2,-25.2 c -1.4,-1.4 -1.4,-3.7 0,-5.1 0.7,-0.7 1.6,-1.1 2.5,-1.1 m 0,-5 c -2.3,0 -4.5,0.9 -6.1,2.5 -3.4,3.4 -3.3,8.8 0,12.2 l 25.2,25.2 c 1.6,1.6 3.8,2.5 6.1,2.5 2.3,0 4.5,-0.9 6.1,-2.5 3.3,-3.4 3.3,-8.8 0,-12.2 L 604,241 c -1.6,-1.6 -3.8,-2.5 -6.1,-2.5 l 0,0 z"
         id="path121"
         inkscape:connector-curvature="0" /></g><polygon
       stroke-miterlimit="10"
       points="620.7,277.4 632.2,281.1 628.2,269.9 "
       id="polygon123"
       style="stroke:#000000;stroke-width:5;stroke-linecap:round;stroke-linejoin:round;stroke-miterlimit:10" /></g></svg>