<?xml version="1.0" encoding="UTF-8" standalone="no"?>
<svg
   xmlns:dc="http://purl.org/dc/elements/1.1/"
   xmlns:cc="http://creativecommons.org/ns#"
   xmlns:rdf="http://www.w3.org/1999/02/22-rdf-syntax-ns#"
   xmlns:svg="http://www.w3.org/2000/svg"
   xmlns="http://www.w3.org/2000/svg"
   xmlns:sodipodi="http://sodipodi.sourceforge.net/DTD/sodipodi-0.dtd"
   xmlns:inkscape="http://www.inkscape.org/namespaces/inkscape"
   width="24"
   height="24"
   viewBox="0 0 24 24"
   version="1.1"
   id="svg4572"
   sodipodi:docname="shrugging-attempt.svg"
   inkscape:version="0.92.3 (2405546, 2018-03-11)">
  <metadata
     id="metadata4578">
    <rdf:RDF>
      <cc:Work
         rdf:about="">
        <dc:format>image/svg+xml</dc:format>
        <dc:type
           rdf:resource="http://purl.org/dc/dcmitype/StillImage" />
        <dc:title></dc:title>
      </cc:Work>
    </rdf:RDF>
  </metadata>
  <defs
     id="defs4576" />
  <sodipodi:namedview
     pagecolor="#ffffff"
     bordercolor="#666666"
     borderopacity="1"
     objecttolerance="10"
     gridtolerance="10"
     guidetolerance="10"
     inkscape:pageopacity="0"
     inkscape:pageshadow="2"
     inkscape:window-width="2160"
     inkscape:window-height="1342"
     id="namedview4574"
     showgrid="false"
     inkscape:zoom="44.291667"
     inkscape:cx="12"
     inkscape:cy="11.096896"
     inkscape:window-x="0"
     inkscape:window-y="55"
     inkscape:window-maximized="1"
     inkscape:current-layer="svg4572" />
  <path
     d="M 18.242239,4.0583255 C 18.209448,5.2697021 18.38401,6.3794088 17.311914,6.534807 16.348545,6.6744456 15.453308,6.5921182 14.471785,6.6529201 13.639642,6.7044685 12.810391,7 12,7 11.094306,7 10.255365,6.653187 9.3248457,6.5884564 8.2844879,6.5160849 7.152235,6.7172943 6.1398585,6.5553303 5.2283597,6.4095051 5.2439327,5.2320946 5.2158984,4.0809031 L 3.4289746,4.0489182 C 3.4463691,8.2700235 4.9095749,8.4532558 5.9163205,8.6186417 6.9438488,8.7874418 7.9897838,8.9141316 9,9 v 13 h 2 v -6 h 2 v 6 h 2 V 9 c 0.89988,-0.07649 1.828103,-0.185371 2.746411,-0.3275545 1.122648,-0.1738219 2.230478,-0.8038126 2.169864,-4.646105 z M 12,6 c 1.1,0 2,-0.9 2,-2 0,-1.1 -0.9,-2 -2,-2 -1.1,0 -2,0.9 -2,2 0,1.1 0.9,2 2,2 z"
     id="path4568"
     inkscape:connector-curvature="0"
     sodipodi:nodetypes="csssssccsccccccccsccsssss" />
  <path
     fill="none"
     d="M0 0h24v24H0z"
     id="path4570" />
</svg>
