<?xml version="1.0" standalone="no"?>
<!DOCTYPE svg PUBLIC "-//W3C//DTD SVG 20010904//EN"
 "http://www.w3.org/TR/2001/REC-SVG-20010904/DTD/svg10.dtd">
<svg version="1.0" xmlns="http://www.w3.org/2000/svg"
 width="726.000000pt" height="726.000000pt" viewBox="0 0 726.000000 726.000000"
 preserveAspectRatio="xMidYMid meet">
<metadata>
Created by potrace 1.14, written by Peter Selinger 2001-2017
</metadata>
<g transform="translate(0.000000,726.000000) scale(0.100000,-0.100000)"
fill="#000000" stroke="none">
<path d="M3472 6804 c-55 -14 -79 -28 -285 -153 -64 -39 -188 -113 -275 -165
-86 -51 -251 -149 -367 -218 -203 -121 -847 -501 -931 -549 -291 -168 -504
-300 -546 -337 -123 -111 -131 -267 -20 -376 30 -29 205 -142 368 -236 159
-92 441 -277 488 -320 79 -73 108 -158 82 -244 -7 -23 -41 -92 -76 -152 -35
-60 -72 -125 -83 -144 -10 -19 -68 -118 -127 -220 -59 -102 -185 -320 -280
-485 -95 -165 -181 -312 -191 -327 -11 -15 -19 -29 -19 -32 0 -2 -65 -115
-144 -249 -79 -135 -154 -266 -165 -292 -19 -42 -35 -120 -35 -170 0 -78 41
-169 104 -232 37 -37 279 -189 440 -276 30 -16 62 -36 71 -43 8 -8 18 -14 21
-14 4 0 42 -21 85 -46 89 -53 249 -146 308 -179 22 -13 81 -47 130 -75 50 -29
131 -76 180 -105 50 -28 146 -84 214 -123 68 -40 124 -72 126 -72 1 0 55 -31
119 -70 65 -38 119 -70 120 -70 3 0 98 -55 316 -183 280 -164 397 -207 545
-202 58 2 111 10 149 24 72 26 300 155 1006 571 63 37 225 133 360 212 331
195 783 462 903 534 55 33 116 75 136 95 74 70 90 174 41 273 -28 60 -45 76
-150 144 -212 138 -284 184 -420 272 -416 268 -428 277 -452 340 -28 73 -11
123 127 360 40 69 82 141 93 160 22 39 236 405 389 665 313 531 512 877 533
925 29 68 32 168 7 217 -30 57 -93 108 -229 189 -73 43 -142 84 -153 90 -22
12 -317 184 -645 377 -113 66 -214 126 -225 132 -27 14 -199 116 -315 185 -52
31 -189 112 -305 180 -115 68 -280 165 -365 216 -250 149 -386 203 -525 209
-48 2 -101 -2 -133 -11z m558 -419 c36 -18 151 -83 255 -145 105 -62 210 -124
235 -138 25 -14 62 -36 83 -49 21 -13 55 -33 75 -45 52 -29 258 -150 290 -170
15 -9 38 -23 52 -31 41 -22 537 -315 660 -390 63 -38 128 -81 143 -96 60 -55
75 -125 43 -194 -37 -77 -89 -112 -595 -399 -211 -120 -512 -294 -533 -309
-15 -11 -29 -19 -32 -19 -3 0 -58 -31 -122 -70 -65 -38 -119 -70 -122 -70 -2
0 -52 -29 -111 -63 -249 -149 -284 -169 -351 -203 -39 -19 -80 -37 -90 -39
-10 -2 -27 -8 -37 -13 -39 -20 -169 -42 -248 -43 -135 0 -317 47 -435 113
-106 59 -446 262 -505 301 -105 70 -146 128 -151 211 -3 70 15 111 155 351 68
115 132 223 141 240 10 16 69 118 132 225 63 107 148 251 188 320 161 275 269
424 417 576 54 55 118 113 143 130 25 16 47 32 50 36 12 15 87 26 145 21 40
-3 81 -15 125 -38z m-1014 -252 c29 -19 47 -64 41 -105 -5 -43 -24 -78 -169
-326 -66 -113 -128 -218 -137 -234 -225 -387 -412 -695 -439 -723 -47 -48 -86
-67 -147 -71 -65 -3 -130 20 -261 95 -58 34 -110 61 -115 61 -5 0 -9 5 -9 10
0 6 -4 10 -9 10 -16 0 -327 188 -355 213 -34 32 -65 104 -59 136 18 94 31 108
201 202 58 33 107 59 109 59 1 0 32 18 68 40 36 22 67 40 70 40 2 0 30 15 62
34 32 18 78 45 103 58 25 14 189 106 365 205 176 99 361 201 410 228 50 26 95
51 100 55 6 5 30 14 53 22 47 16 84 13 118 -9z m2691 -1548 c24 -16 44 -73 37
-108 -7 -38 -26 -78 -96 -201 -37 -66 -68 -121 -68 -123 0 -2 -12 -22 -27 -46
-14 -23 -40 -67 -57 -98 -31 -55 -269 -470 -287 -499 -29 -48 -139 -242 -139
-246 0 -5 -5 -12 -51 -67 -58 -69 -140 -95 -231 -71 -79 20 -615 319 -675 376
-45 43 -62 84 -58 136 7 86 26 102 346 286 1028 593 1134 653 1189 672 39 14
84 10 117 -11z m-3147 -520 c88 -45 454 -251 527 -298 113 -72 135 -193 50
-275 -17 -17 -106 -73 -197 -125 -91 -51 -235 -134 -320 -184 -150 -87 -573
-332 -655 -378 -316 -180 -314 -179 -373 -172 -63 7 -92 40 -92 105 0 40 12
69 80 192 45 80 85 152 90 160 14 22 61 106 105 185 21 39 46 81 56 94 11 13
19 27 19 32 0 5 25 49 55 100 30 50 55 93 55 95 0 3 32 59 71 127 40 67 83
142 96 167 74 135 131 199 199 220 57 18 143 1 234 -45z m1225 -745 c33 -7 65
-15 70 -18 6 -4 19 -8 30 -9 10 -2 22 -8 26 -14 3 -6 8 -10 10 -9 10 4 69 -15
114 -38 27 -14 165 -94 307 -179 274 -164 331 -210 358 -292 11 -33 11 -54 2
-102 -11 -61 -16 -71 -172 -334 -45 -77 -91 -156 -102 -175 -11 -19 -58 -98
-103 -175 -46 -77 -92 -156 -102 -175 -131 -234 -300 -491 -378 -576 -5 -6
-43 -48 -84 -93 -145 -160 -358 -279 -477 -268 -68 6 -120 31 -350 164 -167
97 -264 152 -384 220 -19 11 -100 58 -180 103 -195 112 -208 119 -260 148 -25
14 -90 51 -145 82 -55 31 -120 68 -145 82 -210 116 -383 217 -422 245 -110 80
-122 186 -28 261 24 18 210 127 525 307 22 12 81 46 130 75 50 29 135 79 190
110 152 86 589 340 780 453 190 113 273 156 295 157 9 0 20 4 25 8 14 13 112
41 165 48 25 3 46 7 48 9 8 7 204 -4 257 -15z m1456 -800 c19 -10 87 -49 150
-86 63 -37 130 -76 149 -86 119 -67 259 -155 283 -177 80 -73 80 -180 1 -252
-16 -14 -58 -42 -94 -61 -54 -29 -284 -158 -420 -235 -19 -11 -62 -35 -95 -53
-33 -18 -73 -40 -90 -50 -16 -9 -55 -31 -85 -47 -47 -26 -247 -138 -347 -195
-18 -10 -48 -26 -65 -36 -18 -11 -91 -50 -162 -87 -105 -56 -138 -69 -177 -69
-57 -1 -95 29 -105 82 -11 59 -12 57 247 500 9 16 92 156 184 313 93 156 184
311 203 344 101 173 150 220 239 234 52 8 119 -7 184 -39z"/>
</g>
</svg>
